Patient4_TMGait_0pt3_03_right_06_GRF.mot
version=1
nRows=32
nColumns=19
inDegrees=no
endheader
time	F1x	F1y	F1z	M1x	M1y	M1z	F2x	F2y	F2z	M2x	M2y	M2z	EC1x	EC1y	EC1z	EC2x	EC2y	EC2z
11.28	-11.6473	780.7936	47.201	-274.1145	-50.329	796.9959	-2.9743	22.8426	-5.863	8.9637	4.9651	19.398	-0.0592	0.0182	-0.0073	-0.0462	0.0165	0.9585
11.2992	-10.9125	798.816	49.6936	-280.1641	-52.1253	812.5131	-2.7048	18.0094	-4.4071	6.9992	3.9667	15.3505	-0.0592	0.0182	-0.0073	-0.0462	0.0165	0.9585
11.3184	-10.0734	818.5064	52.7412	-286.7278	-54.3718	829.0855	-2.2471	13.1328	-2.9691	5.0529	2.8703	11.299	-0.0592	0.0182	-0.0073	-0.0462	0.0165	0.9585
11.3376	-9.0811	837.9343	56.1658	-293.1282	-56.8982	844.8931	-1.6708	8.8163	-1.7052	3.3539	1.8159	7.7374	-0.0592	0.0182	-0.0073	-0.0462	0.0165	0.9585
11.3569	-7.8716	855.0041	59.7014	-298.6374	-59.4356	857.9897	-1.1048	5.4096	-0.71277	2.0296	0.93071	4.9484	-0.0592	0.0182	-0.0073	-0.0462	0.0165	0.9585
11.3761	-6.4042	867.7153	63.0193	-302.5722	-61.6539	866.5409	-0.62555	2.9694	-0.0038242	1.0942	0.25876	2.9641	-0.0592	0.0182	-0.0073	-0.0462	0.0165	0.9585
11.3953	-4.6906	874.3874	65.7611	-304.373	-63.207	869.0289	-0.26244	1.3734	0.4579	0.49286	-0.20814	1.6647	-0.0592	0.0182	-0.0073	-0.0462	0.0165	0.9585
11.4145	-2.802	873.8534	67.5939	-303.6675	-63.7941	864.4271	-0.011969	0.41047	0.73087	0.13763	-0.50726	0.86175	-0.0592	0.0182	-0.0073	-0.0462	0.0165	0.9585
11.4337	-0.84898	865.6669	68.2711	-300.3373	-63.2136	852.3933	0.14979	-0.16097	0.87592	-0.068179	-0.68754	0.34645	-0.0592	0.0182	-0.0073	-0.0462	0.0165	0.9585
11.4529	1.0399	850.2084	67.6902	-294.5484	-61.4158	833.3702	0.25451	-0.57807	0.94325	-0.21627	-0.79452	-0.088119	-0.0592	0.0182	-0.0073	-0.0462	0.0165	0.9585
11.4721	2.76	828.6449	65.9161	-286.7332	-58.5143	808.5343	0.33348	-1.0487	0.9713	-0.3874	-0.86865	-0.63239	-0.0592	0.0182	-0.0073	-0.0462	0.0165	0.9585
11.4914	4.2756	802.8222	63.1632	-277.5453	-54.7467	779.6762	0.41409	-1.7364	0.9842	-0.6469	-0.93942	-1.4388	-0.0592	0.0182	-0.0073	-0.0462	0.0165	0.9585
11.5106	5.6231	775.0746	59.7524	-267.7914	-50.4283	749.0192	0.5198	-2.7424	0.9895	-1.0377	-1.0207	-2.6062	-0.0592	0.0182	-0.0073	-0.0462	0.0165	0.9585
11.5298	6.9181	747.9685	56.0615	-258.3447	-45.8997	718.9706	0.66491	-4.084	0.97945	-1.5697	-1.1063	-4.1469	-0.0592	0.0182	-0.0073	-0.0462	0.0165	0.9585
11.549	8.3394	724.0073	52.465	-250.046	-41.4676	691.847	0.85111	-5.6588	0.92997	-2.2049	-1.1636	-5.9309	-0.0592	0.0182	-0.0073	-0.0462	0.0165	0.9585
11.5682	10.0842	705.3018	49.2785	-243.5955	-37.3659	669.5799	1.0658	-7.1949	0.79893	-2.8384	-1.1351	-7.6355	-0.0592	0.0182	-0.0073	-0.0462	0.0165	0.9585
11.5874	12.3224	693.2412	46.73	-239.4415	-33.7447	653.4186	1.2758	-8.1904	0.52677	-3.275	-0.93842	-8.6864	-0.0592	0.0182	-0.0073	-0.0462	0.0165	0.9585
11.6066	15.1654	688.2583	44.9561	-237.6992	-30.6822	643.7254	1.4192	-7.8639	0.04551	-3.2082	-0.46697	-8.2046	-0.0592	0.0182	-0.0073	-0.0462	0.0165	0.9585
11.6259	18.6379	689.7373	44.0104	-238.1231	-28.2043	639.9156	1.398	-5.1225	-0.71049	-2.2069	0.40332	-4.9704	-0.0592	0.0182	-0.0073	-0.0462	0.0165	0.9585
11.6451	22.6537	696.0154	43.8785	-240.1111	-26.3106	640.4692	1.0733	1.421	-1.7888	0.28113	1.794	2.5507	-0.0592	0.0182	-0.0073	-0.0462	0.0165	0.9585
11.6643	27.0102	704.532	44.4827	-242.7656	-24.9924	643.0891	0.26055	13.3325	-3.193	4.8884	3.7889	16.0803	-0.0592	0.0182	-0.0073	-0.0462	0.0165	0.9585
11.6835	31.4117	712.1527	45.6432	-245.0176	-24.197	645.0241	-1.254	32.1079	-4.841	12.2322	6.3895	37.2373	-0.0592	0.0182	-0.0073	-0.0462	0.0165	0.9585
11.7027	35.5157	715.5694	47.0326	-245.766	-23.7738	643.4338	-3.6814	58.7231	-6.5167	22.7406	9.4441	67.0238	-0.0592	0.0182	-0.0073	-0.0462	0.0165	0.9585
11.7219	38.9841	711.7007	48.2117	-244.0025	-23.4817	635.7286	-7.1688	93.0143	-7.8392	36.4083	12.5842	105.1258	-0.0592	0.0182	-0.0073	-0.0462	0.0165	0.9585
11.7411	41.5225	698.157	48.7488	-238.9549	-23.0709	619.9473	-11.7332	133.5316	-8.5676	52.7009	15.5493	149.7903	-0.0592	0.0182	-0.0073	-0.0462	0.0165	0.9585
11.7604	42.9582	673.7668	48.3574	-230.2551	-22.3651	595.1715	-17.1622	177.546	-8.9965	70.5139	18.5522	197.8877	-0.0592	0.0182	-0.0073	-0.0462	0.0165	0.9585
11.7796	43.308	638.9717	46.975	-218.067	-21.2962	561.8416	-22.7579	221.4198	-9.7199	88.3256	21.9076	245.3432	-0.0592	0.0182	-0.0073	-0.0462	0.0165	0.9585
11.7988	42.762	595.8867	44.7702	-203.1099	-19.9155	521.8036	-27.7228	262.0049	-11.2038	104.8061	25.7583	288.6993	-0.0592	0.0182	-0.0073	-0.0462	0.0165	0.9585
11.818	41.612	547.8394	42.0333	-186.5104	-18.3349	477.9179	-31.5887	298.2236	-13.294	119.5045	29.7504	326.8304	-0.0592	0.0182	-0.0073	-0.0462	0.0165	0.9585
11.8372	40.1517	498.5037	39.022	-169.5184	-16.6413	433.3217	-34.255	330.7396	-15.4312	132.7114	33.2691	360.5676	-0.0592	0.0182	-0.0073	-0.0462	0.0165	0.9585
11.8564	38.5949	451.0682	35.8837	-153.2269	-14.8667	390.7285	-35.8818	360.7054	-17.1793	144.9125	35.9333	391.3095	-0.0592	0.0182	-0.0073	-0.0462	0.0165	0.9585
11.8756	37.0584	407.7121	32.6821	-138.3867	-13.0147	351.9815	-36.7761	389.0047	-18.4341	156.457	37.7617	420.1634	-0.0592	0.0182	-0.0073	-0.0462	0.0165	0.9585
